<svg width="50" height="50" viewBox="0 0 50 50" fill="none" xmlns="http://www.w3.org/2000/svg">
<circle cx="25" cy="25" r="25" fill="#42B073"/>
<path d="M34.0665 15.2786C32.9297 14.136 31.5756 13.2301 30.0833 12.6137C28.5909 11.9973 26.9901 11.6827 25.3743 11.6883C18.6041 11.6883 13.0863 17.1785 13.0863 23.9149C13.0863 26.074 13.6566 28.1714 14.723 30.022L12.9871 36.3636L19.4969 34.661C21.2948 35.6356 23.316 36.1538 25.3743 36.1538C32.1445 36.1538 37.6624 30.6636 37.6624 23.9272C37.6624 20.6578 36.3852 17.5857 34.0665 15.2786ZM25.3743 34.0811C23.5392 34.0811 21.7412 33.5876 20.1665 32.6623L19.7945 32.4402L15.9258 33.4519L16.955 29.7012L16.707 29.3188C15.6874 27.6988 15.146 25.8263 15.1446 23.9149C15.1446 18.3136 19.7325 13.7487 25.3619 13.7487C28.0898 13.7487 30.6566 14.8097 32.5785 16.7344C33.5302 17.6769 34.2843 18.7981 34.7973 20.0328C35.3103 21.2675 35.5718 22.5912 35.5668 23.9272C35.5916 29.5285 31.0038 34.0811 25.3743 34.0811ZM30.979 26.4811C30.669 26.3331 29.1562 25.5928 28.8834 25.4818C28.5982 25.3831 28.3998 25.3337 28.189 25.6298C27.9783 25.9383 27.3955 26.6292 27.2219 26.8266C27.0483 27.0363 26.8623 27.061 26.5523 26.9006C26.2423 26.7525 25.2503 26.4194 24.0848 25.3831C23.1672 24.5688 22.5596 23.5694 22.3736 23.261C22.2 22.9526 22.3488 22.7922 22.51 22.6318C22.6464 22.4961 22.82 22.274 22.9688 22.1013C23.1176 21.9285 23.1796 21.7928 23.2788 21.5954C23.378 21.3857 23.3284 21.213 23.254 21.0649C23.1796 20.9169 22.5596 19.4117 22.3116 18.7948C22.0636 18.2026 21.8032 18.2766 21.6172 18.2643H21.022C20.8112 18.2643 20.4889 18.3383 20.2037 18.6467C19.9309 18.9552 19.1373 19.6954 19.1373 21.2006C19.1373 22.7058 20.2409 24.1616 20.3897 24.359C20.5385 24.5688 22.5596 27.6532 25.6347 28.9733C26.3663 29.2941 26.9367 29.4792 27.3831 29.6149C28.1146 29.8493 28.7842 29.8123 29.3174 29.7383C29.9126 29.6519 31.1402 28.998 31.3882 28.2824C31.6485 27.5668 31.6486 26.9623 31.5618 26.8266C31.475 26.6909 31.289 26.6292 30.979 26.4811Z" fill="white"/>
</svg>
